# MagicaVoxel @ Ephtracy

# group
o 

# material
mtllib untitled.mtl
usemtl palette

# normals
vn -1 0 0
vn 1 0 0
vn 0 0 1
vn 0 0 -1
vn 0 -1 0
vn 0 1 0

# texcoords
vt 0.841797 0.5
vt 0.931641 0.5
vt 0.994141 0.5

# verts
v -2.3 0 -2.7
v -2.3 0 -2.8
v -2.3 0.3 1.3
v -2.3 0.3 -2.7
v -2.3 3.3 1.3
v -2.3 3.3 -2.8
v -2.2 0 -2.6
v -2.2 0 -2.7
v -2.2 0.2 1.2
v -2.2 0.2 -2.6
v -2.2 0.3 1.2
v -2.2 0.3 -2.7
v -2.1 0 -2.5
v -2.1 0 -2.6
v -2.1 0.1 1.1
v -2.1 0.1 -2.5
v -2.1 0.2 1.1
v -2.1 0.2 -2.6
v -2 0 1
v -2 0 -2.5
v -2 0.1 1
v -2 0.1 -2.5
v -1.6 2 -0.9
v -1.6 2 -1.8
v -1.6 2.6 -0.1
v -1.6 2.6 -0.6
v -1.6 2.8 -0.1
v -1.6 2.8 -0.6
v -1.6 2.8 -0.9
v -1.6 2.8 -1.8
v -1.1 0 0.8
v -1.1 0 0.5
v -1.1 1.2 -2
v -1.1 1.2 -2.3
v -1.1 2.8 0.8
v -1.1 2.8 0.5
v -1.1 2.8 -2
v -1.1 2.8 -2.3
v -0.7 0 0.4
v -0.7 0 -0.5
v -0.7 2.8 0.4
v -0.7 2.8 -0.5
v -0.5 0 -0.9
v -0.5 0 -1.7
v -0.5 2.8 -0.9
v -0.5 2.8 -1.7
v 0.3 0 0.3
v 0.3 0 -0.2
v 0.3 2.8 0.3
v 0.3 2.8 -0.2
v 0.4 0 -1.7
v 0.4 0 -2.4
v 0.4 2.8 -1.7
v 0.4 2.8 -2.4
v 0.6 0 -0.4
v 0.6 0 -1.2
v 0.6 2.8 -0.4
v 0.6 2.8 -1.2
v 1.3 0 0.9
v 1.3 0 -1.7
v 1.3 2.8 0.9
v 1.3 2.8 -1.7
v 1.4 0 1.1
v 1.4 0 1
v 1.4 0.1 1.1
v 1.4 0.1 1
v 1.5 0 1.2
v 1.5 0 1.1
v 1.5 0.2 1.2
v 1.5 0.2 1.1
v 1.6 0 1.3
v 1.6 0 1.2
v 1.6 0.3 1.3
v 1.6 0.3 1.2
v -2.2 0 -2.7
v -2.2 0 -2.8
v -2.2 0.3 -2.7
v -2.2 0.3 -2.8
v -2.1 0 -2.6
v -2.1 0 -2.7
v -2.1 0.2 -2.6
v -2.1 0.2 -2.7
v -2 0 -2.5
v -2 0 -2.6
v -2 0.1 -2.5
v -2 0.1 -2.6
v -1.9 0 0.2
v -1.9 0 -2.4
v -1.9 2.8 0.2
v -1.9 2.8 -2.4
v -1.3 0 0.9
v -1.3 0 0.2
v -1.3 2.8 0.9
v -1.3 2.8 0.2
v -1 2.6 -0.1
v -1 2.6 -0.6
v -1 2.8 -0.1
v -1 2.8 -0.6
v -0.9 2 -0.9
v -0.9 2 -1.8
v -0.9 2.8 -0.9
v -0.9 2.8 -1.8
v -0.8 0 0.8
v -0.8 0 0.5
v -0.8 2.8 0.8
v -0.8 2.8 0.5
v -0.4 1.2 -2
v -0.4 1.2 -2.3
v -0.4 2.8 -2
v -0.4 2.8 -2.3
v 2.38419e-007 0 0.4
v 2.38419e-007 0 -0.5
v 2.38419e-007 2.8 0.4
v 2.38419e-007 2.8 -0.5
v 0.1 0 -0.9
v 0.1 0 -1.7
v 0.1 2.8 -0.9
v 0.1 2.8 -1.7
v 0.8 0 0.3
v 0.8 0 -0.2
v 0.8 2.8 0.3
v 0.8 2.8 -0.2
v 1.1 0 -0.4
v 1.1 0 -1.2
v 1.1 2.8 -0.4
v 1.1 2.8 -1.2
v 1.4 0 1
v 1.4 0 -2.5
v 1.4 0.1 1
v 1.4 0.1 -2.5
v 1.5 0 1.1
v 1.5 0 1
v 1.5 0.1 1
v 1.5 0.1 -2.6
v 1.5 0.2 1.1
v 1.5 0.2 -2.6
v 1.6 0 1.2
v 1.6 0 1.1
v 1.6 0.2 1.1
v 1.6 0.2 -2.7
v 1.6 0.3 1.2
v 1.6 0.3 -2.7
v 1.7 0 1.3
v 1.7 0 1.2
v 1.7 0.3 1.2
v 1.7 0.3 -2.8
v 1.7 3.3 1.3
v 1.7 3.3 -2.8
v -2.3 0.3 1.3
v -2.3 3.3 1.3
v 1.6 0 1.3
v 1.6 0.3 1.3
v 1.7 0 1.3
v 1.7 3.3 1.3
v -2.2 0.2 1.2
v -2.2 0.3 1.2
v 1.5 0 1.2
v 1.5 0.2 1.2
v 1.6 0 1.2
v 1.6 0.3 1.2
v -2.1 0.1 1.1
v -2.1 0.2 1.1
v 1.4 0 1.1
v 1.4 0.1 1.1
v 1.5 0 1.1
v 1.5 0.2 1.1
v -2 0 1
v -2 0.1 1
v 1.4 0 1
v 1.4 0.1 1
v -1.1 0 0.8
v -1.1 2.8 0.8
v -0.8 0 0.8
v -0.8 2.8 0.8
v -0.7 0 0.4
v -0.7 2.8 0.4
v 2.38419e-007 0 0.4
v 2.38419e-007 2.8 0.4
v 0.3 0 0.3
v 0.3 2.8 0.3
v 0.8 0 0.3
v 0.8 2.8 0.3
v -1.6 2.6 -0.1
v -1.6 2.8 -0.1
v -1 2.6 -0.1
v -1 2.8 -0.1
v 0.6 0 -0.4
v 0.6 2.8 -0.4
v 1.1 0 -0.4
v 1.1 2.8 -0.4
v -1.6 2 -0.9
v -1.6 2.8 -0.9
v -0.9 2 -0.9
v -0.9 2.8 -0.9
v -0.5 0 -0.9
v -0.5 2.8 -0.9
v 0.1 0 -0.9
v 0.1 2.8 -0.9
v 0.4 0 -1.7
v 0.4 2.8 -1.7
v 1.3 0 -1.7
v 1.3 2.8 -1.7
v -1.1 1.2 -2
v -1.1 2.8 -2
v -0.4 1.2 -2
v -0.4 2.8 -2
v -1.9 0 -2.4
v -1.9 2.8 -2.4
v 0.4 0 -2.4
v 0.4 2.8 -2.4
v -2.1 0 -2.5
v -2.1 0.1 -2.5
v -2 0 -2.5
v -2 0.1 -2.5
v -2.2 0 -2.6
v -2.2 0.2 -2.6
v -2.1 0 -2.6
v -2.1 0.2 -2.6
v -2.3 0 -2.7
v -2.3 0.3 -2.7
v -2.2 0 -2.7
v -2.2 0.3 -2.7
v 1.6 0 1.2
v 1.6 0.3 1.2
v 1.7 0 1.2
v 1.7 0.3 1.2
v 1.5 0 1.1
v 1.5 0.2 1.1
v 1.6 0 1.1
v 1.6 0.2 1.1
v 1.4 0 1
v 1.4 0.1 1
v 1.5 0 1
v 1.5 0.1 1
v -1.3 0 0.9
v -1.3 2.8 0.9
v 1.3 0 0.9
v 1.3 2.8 0.9
v -1.1 0 0.5
v -1.1 2.8 0.5
v -0.8 0 0.5
v -0.8 2.8 0.5
v -1.9 0 0.2
v -1.9 2.8 0.2
v -1.3 0 0.2
v -1.3 2.8 0.2
v 0.3 0 -0.2
v 0.3 2.8 -0.2
v 0.8 0 -0.2
v 0.8 2.8 -0.2
v -0.7 0 -0.5
v -0.7 2.8 -0.5
v 2.38419e-007 0 -0.5
v 2.38419e-007 2.8 -0.5
v -1.6 2.6 -0.6
v -1.6 2.8 -0.6
v -1 2.6 -0.6
v -1 2.8 -0.6
v 0.6 0 -1.2
v 0.6 2.8 -1.2
v 1.1 0 -1.2
v 1.1 2.8 -1.2
v -0.5 0 -1.7
v -0.5 2.8 -1.7
v 0.1 0 -1.7
v 0.1 2.8 -1.7
v -1.6 2 -1.8
v -1.6 2.8 -1.8
v -0.9 2 -1.8
v -0.9 2.8 -1.8
v -1.1 1.2 -2.3
v -1.1 2.8 -2.3
v -0.4 1.2 -2.3
v -0.4 2.8 -2.3
v -2 0 -2.5
v -2 0.1 -2.5
v 1.4 0 -2.5
v 1.4 0.1 -2.5
v -2.1 0 -2.6
v -2.1 0.2 -2.6
v -2 0 -2.6
v -2 0.1 -2.6
v 1.5 0.1 -2.6
v 1.5 0.2 -2.6
v -2.2 0 -2.7
v -2.2 0.3 -2.7
v -2.1 0 -2.7
v -2.1 0.2 -2.7
v 1.6 0.2 -2.7
v 1.6 0.3 -2.7
v -2.3 0 -2.8
v -2.3 3.3 -2.8
v -2.2 0 -2.8
v -2.2 0.3 -2.8
v 1.7 0.3 -2.8
v 1.7 3.3 -2.8
v 1.6 0 1.3
v 1.7 0 1.3
v 1.5 0 1.2
v 1.6 0 1.2
v 1.7 0 1.2
v 1.4 0 1.1
v 1.5 0 1.1
v 1.6 0 1.1
v -2 0 1
v 1.4 0 1
v 1.5 0 1
v -1.9 0 0.9
v -1.3 0 0.9
v 1.3 0 0.9
v -1.1 0 0.8
v -0.8 0 0.8
v -1.1 0 0.5
v -0.8 0 0.5
v -0.7 0 0.4
v 2.38419e-007 0 0.4
v 0.3 0 0.3
v 0.8 0 0.3
v -1.9 0 0.2
v -1.3 0 0.2
v 0.3 0 -0.2
v 0.8 0 -0.2
v 0.6 0 -0.4
v 1.1 0 -0.4
v -0.7 0 -0.5
v 2.38419e-007 0 -0.5
v -0.5 0 -0.9
v 0.1 0 -0.9
v 0.6 0 -1.2
v 1.1 0 -1.2
v -0.5 0 -1.7
v 0.1 0 -1.7
v 0.4 0 -1.7
v 1.3 0 -1.7
v -1.9 0 -2.4
v 0.4 0 -2.4
v 1.3 0 -2.4
v -2.1 0 -2.5
v -2 0 -2.5
v 1.4 0 -2.5
v -2.2 0 -2.6
v -2.1 0 -2.6
v -2 0 -2.6
v -2.3 0 -2.7
v -2.2 0 -2.7
v -2.1 0 -2.7
v -2.3 0 -2.8
v -2.2 0 -2.8
v -2.1 0.1 1.1
v 1.4 0.1 1.1
v -2 0.1 1
v 1.4 0.1 1
v 1.5 0.1 1
v -2.1 0.1 -2.5
v -2 0.1 -2.5
v 1.4 0.1 -2.5
v -2 0.1 -2.6
v 1.5 0.1 -2.6
v -2.2 0.2 1.2
v 1.5 0.2 1.2
v -2.1 0.2 1.1
v 1.5 0.2 1.1
v 1.6 0.2 1.1
v -2.2 0.2 -2.6
v -2.1 0.2 -2.6
v 1.5 0.2 -2.6
v -2.1 0.2 -2.7
v 1.6 0.2 -2.7
v -2.3 0.3 1.3
v 1.6 0.3 1.3
v -2.2 0.3 1.2
v 1.6 0.3 1.2
v 1.7 0.3 1.2
v -2.3 0.3 -2.7
v -2.2 0.3 -2.7
v 1.6 0.3 -2.7
v -2.2 0.3 -2.8
v 1.7 0.3 -2.8
v -1.1 1.2 -2
v -0.4 1.2 -2
v -1.1 1.2 -2.3
v -0.4 1.2 -2.3
v -1.6 2 -0.9
v -0.9 2 -0.9
v -1.6 2 -1.8
v -0.9 2 -1.8
v -1.6 2.6 -0.1
v -1 2.6 -0.1
v -1.6 2.6 -0.6
v -1 2.6 -0.6
v -1.3 2.8 0.9
v 1.3 2.8 0.9
v -1.1 2.8 0.8
v -0.8 2.8 0.8
v -1.1 2.8 0.5
v -0.8 2.8 0.5
v -0.7 2.8 0.4
v 2.38419e-007 2.8 0.4
v 0.3 2.8 0.3
v 0.8 2.8 0.3
v -1.9 2.8 0.2
v -1.3 2.8 0.2
v -1.6 2.8 -0.1
v -1 2.8 -0.1
v 0.3 2.8 -0.2
v 0.8 2.8 -0.2
v 0.6 2.8 -0.4
v 1.1 2.8 -0.4
v -0.7 2.8 -0.5
v 2.38419e-007 2.8 -0.5
v -1.6 2.8 -0.6
v -1 2.8 -0.6
v -1.6 2.8 -0.9
v -0.9 2.8 -0.9
v -0.5 2.8 -0.9
v 0.1 2.8 -0.9
v 0.6 2.8 -1.2
v 1.1 2.8 -1.2
v -0.5 2.8 -1.7
v 0.1 2.8 -1.7
v 0.4 2.8 -1.7
v 1.3 2.8 -1.7
v -1.6 2.8 -1.8
v -0.9 2.8 -1.8
v -1.1 2.8 -2
v -0.4 2.8 -2
v -1.1 2.8 -2.3
v -0.4 2.8 -2.3
v -1.9 2.8 -2.4
v 0.4 2.8 -2.4
v -2.3 3.3 1.3
v 1.7 3.3 1.3
v -2.3 3.3 -2.8
v 1.7 3.3 -2.8

# faces
f 4/3/1 2/3/1 1/3/1
f 5/3/1 4/3/1 3/3/1
f 6/3/1 2/3/1 4/3/1
f 6/3/1 4/3/1 5/3/1
f 10/3/1 8/3/1 7/3/1
f 11/3/1 10/3/1 9/3/1
f 12/3/1 8/3/1 10/3/1
f 12/3/1 10/3/1 11/3/1
f 16/3/1 14/3/1 13/3/1
f 17/3/1 16/3/1 15/3/1
f 18/3/1 14/3/1 16/3/1
f 18/3/1 16/3/1 17/3/1
f 21/3/1 20/3/1 19/3/1
f 22/3/1 20/3/1 21/3/1
f 27/1/1 26/1/1 25/1/1
f 28/1/1 26/1/1 27/1/1
f 29/1/1 24/1/1 23/1/1
f 30/1/1 24/1/1 29/1/1
f 35/1/1 32/1/1 31/1/1
f 36/1/1 32/1/1 35/1/1
f 37/1/1 34/1/1 33/1/1
f 38/1/1 34/1/1 37/1/1
f 41/1/1 40/1/1 39/1/1
f 42/1/1 40/1/1 41/1/1
f 45/1/1 44/1/1 43/1/1
f 46/1/1 44/1/1 45/1/1
f 49/1/1 48/1/1 47/1/1
f 50/1/1 48/1/1 49/1/1
f 53/1/1 52/1/1 51/1/1
f 54/1/1 52/1/1 53/1/1
f 57/1/1 56/1/1 55/1/1
f 58/1/1 56/1/1 57/1/1
f 61/3/1 60/3/1 59/3/1
f 62/3/1 60/3/1 61/3/1
f 65/3/1 64/3/1 63/3/1
f 66/3/1 64/3/1 65/3/1
f 69/3/1 68/3/1 67/3/1
f 70/3/1 68/3/1 69/3/1
f 73/3/1 72/3/1 71/3/1
f 74/3/1 72/3/1 73/3/1
f 75/3/2 76/3/2 77/3/2
f 77/3/2 76/3/2 78/3/2
f 79/3/2 80/3/2 81/3/2
f 81/3/2 80/3/2 82/3/2
f 83/3/2 84/3/2 85/3/2
f 85/3/2 84/3/2 86/3/2
f 87/3/2 88/3/2 89/3/2
f 89/3/2 88/3/2 90/3/2
f 91/1/2 92/1/2 93/1/2
f 93/1/2 92/1/2 94/1/2
f 95/1/2 96/1/2 97/1/2
f 97/1/2 96/1/2 98/1/2
f 99/1/2 100/1/2 101/1/2
f 101/1/2 100/1/2 102/1/2
f 103/1/2 104/1/2 105/1/2
f 105/1/2 104/1/2 106/1/2
f 107/1/2 108/1/2 109/1/2
f 109/1/2 108/1/2 110/1/2
f 111/1/2 112/1/2 113/1/2
f 113/1/2 112/1/2 114/1/2
f 115/1/2 116/1/2 117/1/2
f 117/1/2 116/1/2 118/1/2
f 119/1/2 120/1/2 121/1/2
f 121/1/2 120/1/2 122/1/2
f 123/1/2 124/1/2 125/1/2
f 125/1/2 124/1/2 126/1/2
f 127/3/2 128/3/2 129/3/2
f 129/3/2 128/3/2 130/3/2
f 131/3/2 132/3/2 133/3/2
f 131/3/2 133/3/2 135/3/2
f 133/3/2 134/3/2 135/3/2
f 135/3/2 134/3/2 136/3/2
f 137/3/2 138/3/2 139/3/2
f 137/3/2 139/3/2 141/3/2
f 139/3/2 140/3/2 141/3/2
f 141/3/2 140/3/2 142/3/2
f 143/3/2 144/3/2 145/3/2
f 143/3/2 145/3/2 147/3/2
f 145/3/2 146/3/2 147/3/2
f 147/3/2 146/3/2 148/3/2
f 152/3/3 150/3/3 149/3/3
f 153/3/3 152/3/3 151/3/3
f 154/3/3 150/3/3 152/3/3
f 154/3/3 152/3/3 153/3/3
f 158/3/3 156/3/3 155/3/3
f 159/3/3 158/3/3 157/3/3
f 160/3/3 156/3/3 158/3/3
f 160/3/3 158/3/3 159/3/3
f 164/3/3 162/3/3 161/3/3
f 165/3/3 164/3/3 163/3/3
f 166/3/3 162/3/3 164/3/3
f 166/3/3 164/3/3 165/3/3
f 169/3/3 168/3/3 167/3/3
f 170/3/3 168/3/3 169/3/3
f 173/1/3 172/1/3 171/1/3
f 174/1/3 172/1/3 173/1/3
f 177/1/3 176/1/3 175/1/3
f 178/1/3 176/1/3 177/1/3
f 181/1/3 180/1/3 179/1/3
f 182/1/3 180/1/3 181/1/3
f 185/1/3 184/1/3 183/1/3
f 186/1/3 184/1/3 185/1/3
f 189/1/3 188/1/3 187/1/3
f 190/1/3 188/1/3 189/1/3
f 193/1/3 192/1/3 191/1/3
f 194/1/3 192/1/3 193/1/3
f 197/1/3 196/1/3 195/1/3
f 198/1/3 196/1/3 197/1/3
f 201/1/3 200/1/3 199/1/3
f 202/1/3 200/1/3 201/1/3
f 205/1/3 204/1/3 203/1/3
f 206/1/3 204/1/3 205/1/3
f 209/3/3 208/3/3 207/3/3
f 210/3/3 208/3/3 209/3/3
f 213/3/3 212/3/3 211/3/3
f 214/3/3 212/3/3 213/3/3
f 217/3/3 216/3/3 215/3/3
f 218/3/3 216/3/3 217/3/3
f 221/3/3 220/3/3 219/3/3
f 222/3/3 220/3/3 221/3/3
f 223/3/4 224/3/4 225/3/4
f 225/3/4 224/3/4 226/3/4
f 227/3/4 228/3/4 229/3/4
f 229/3/4 228/3/4 230/3/4
f 231/3/4 232/3/4 233/3/4
f 233/3/4 232/3/4 234/3/4
f 235/3/4 236/3/4 237/3/4
f 237/3/4 236/3/4 238/3/4
f 239/1/4 240/1/4 241/1/4
f 241/1/4 240/1/4 242/1/4
f 243/1/4 244/1/4 245/1/4
f 245/1/4 244/1/4 246/1/4
f 247/1/4 248/1/4 249/1/4
f 249/1/4 248/1/4 250/1/4
f 251/1/4 252/1/4 253/1/4
f 253/1/4 252/1/4 254/1/4
f 255/1/4 256/1/4 257/1/4
f 257/1/4 256/1/4 258/1/4
f 259/1/4 260/1/4 261/1/4
f 261/1/4 260/1/4 262/1/4
f 263/1/4 264/1/4 265/1/4
f 265/1/4 264/1/4 266/1/4
f 267/1/4 268/1/4 269/1/4
f 269/1/4 268/1/4 270/1/4
f 271/1/4 272/1/4 273/1/4
f 273/1/4 272/1/4 274/1/4
f 275/3/4 276/3/4 277/3/4
f 277/3/4 276/3/4 278/3/4
f 279/3/4 280/3/4 281/3/4
f 281/3/4 280/3/4 282/3/4
f 282/3/4 280/3/4 283/3/4
f 283/3/4 280/3/4 284/3/4
f 285/3/4 286/3/4 287/3/4
f 287/3/4 286/3/4 288/3/4
f 288/3/4 286/3/4 289/3/4
f 289/3/4 286/3/4 290/3/4
f 291/3/4 292/3/4 293/3/4
f 293/3/4 292/3/4 294/3/4
f 294/3/4 292/3/4 295/3/4
f 295/3/4 292/3/4 296/3/4
f 300/3/5 298/3/5 297/3/5
f 301/3/5 298/3/5 300/3/5
f 303/3/5 300/3/5 299/3/5
f 304/3/5 300/3/5 303/3/5
f 306/3/5 303/3/5 302/3/5
f 307/3/5 303/3/5 306/3/5
f 308/3/5 306/3/5 305/3/5
f 309/3/5 306/3/5 308/3/5
f 310/3/5 306/3/5 309/3/5
f 313/1/5 312/1/5 311/1/5
f 314/1/5 312/1/5 313/1/5
f 319/3/5 308/3/5 305/3/5
f 319/1/5 309/1/5 308/1/5
f 320/1/5 309/1/5 319/1/5
f 321/1/5 318/1/5 317/1/5
f 322/1/5 318/1/5 321/1/5
f 325/1/5 316/1/5 315/1/5
f 326/1/5 316/1/5 325/1/5
f 329/1/5 324/1/5 323/1/5
f 330/1/5 324/1/5 329/1/5
f 331/1/5 328/1/5 327/1/5
f 332/1/5 328/1/5 331/1/5
f 334/3/5 306/3/5 310/3/5
f 335/3/5 319/3/5 305/3/5
f 336/1/5 334/1/5 333/1/5
f 337/3/5 306/3/5 334/3/5
f 337/1/5 334/1/5 336/1/5
f 339/3/5 335/3/5 305/3/5
f 339/3/5 336/3/5 335/3/5
f 339/3/5 337/3/5 336/3/5
f 340/3/5 306/3/5 337/3/5
f 340/3/5 337/3/5 339/3/5
f 342/3/5 339/3/5 338/3/5
f 343/3/5 339/3/5 342/3/5
f 345/3/5 342/3/5 341/3/5
f 346/3/5 342/3/5 345/3/5
f 347/3/5 345/3/5 344/3/5
f 348/3/5 345/3/5 347/3/5
f 351/3/5 350/3/5 349/3/5
f 352/3/5 350/3/5 351/3/5
f 354/3/5 351/3/5 349/3/5
f 355/3/5 351/3/5 354/3/5
f 356/3/5 353/3/5 352/3/5
f 357/3/5 356/3/5 355/3/5
f 358/3/5 353/3/5 356/3/5
f 358/3/5 356/3/5 357/3/5
f 361/3/5 360/3/5 359/3/5
f 362/3/5 360/3/5 361/3/5
f 364/3/5 361/3/5 359/3/5
f 365/3/5 361/3/5 364/3/5
f 366/3/5 363/3/5 362/3/5
f 367/3/5 366/3/5 365/3/5
f 368/3/5 363/3/5 366/3/5
f 368/3/5 366/3/5 367/3/5
f 371/3/5 370/3/5 369/3/5
f 372/3/5 370/3/5 371/3/5
f 374/3/5 371/3/5 369/3/5
f 375/3/5 371/3/5 374/3/5
f 376/3/5 373/3/5 372/3/5
f 377/3/5 376/3/5 375/3/5
f 378/3/5 373/3/5 376/3/5
f 378/3/5 376/3/5 377/3/5
f 381/1/5 380/1/5 379/1/5
f 382/1/5 380/1/5 381/1/5
f 385/1/5 384/1/5 383/1/5
f 386/1/5 384/1/5 385/1/5
f 389/1/5 388/1/5 387/1/5
f 390/1/5 388/1/5 389/1/5
f 393/2/5 392/2/5 391/2/5
f 394/2/5 392/2/5 393/2/5
f 395/2/5 393/2/5 391/2/5
f 396/2/5 392/2/5 394/2/5
f 397/2/5 392/2/5 396/2/5
f 397/2/5 396/2/5 395/2/5
f 398/2/5 392/2/5 397/2/5
f 399/2/5 392/2/5 398/2/5
f 400/2/5 392/2/5 399/2/5
f 402/2/5 395/2/5 391/2/5
f 402/2/5 397/2/5 395/2/5
f 403/2/5 402/2/5 401/2/5
f 404/2/5 397/2/5 402/2/5
f 404/2/5 402/2/5 403/2/5
f 405/2/5 399/2/5 398/2/5
f 406/2/5 392/2/5 400/2/5
f 407/2/5 406/2/5 405/2/5
f 408/2/5 392/2/5 406/2/5
f 408/2/5 406/2/5 407/2/5
f 409/2/5 397/2/5 404/2/5
f 410/2/5 405/2/5 398/2/5
f 410/2/5 407/2/5 405/2/5
f 411/2/5 403/2/5 401/2/5
f 412/2/5 409/2/5 404/2/5
f 412/2/5 410/2/5 409/2/5
f 413/2/5 411/2/5 401/2/5
f 413/2/5 412/2/5 411/2/5
f 414/2/5 410/2/5 412/2/5
f 414/2/5 412/2/5 413/2/5
f 415/2/5 410/2/5 414/2/5
f 416/2/5 407/2/5 410/2/5
f 416/2/5 410/2/5 415/2/5
f 417/2/5 407/2/5 416/2/5
f 418/2/5 392/2/5 408/2/5
f 419/2/5 415/2/5 414/2/5
f 420/2/5 417/2/5 416/2/5
f 420/2/5 418/2/5 417/2/5
f 421/2/5 418/2/5 420/2/5
f 422/2/5 392/2/5 418/2/5
f 422/2/5 418/2/5 421/2/5
f 423/2/5 413/2/5 401/2/5
f 424/2/5 419/2/5 414/2/5
f 424/2/5 421/2/5 420/2/5
f 424/2/5 420/2/5 419/2/5
f 425/2/5 424/2/5 423/2/5
f 426/2/5 421/2/5 424/2/5
f 426/2/5 424/2/5 425/2/5
f 427/2/5 425/2/5 423/2/5
f 428/2/5 421/2/5 426/2/5
f 429/2/5 423/2/5 401/2/5
f 429/2/5 428/2/5 427/2/5
f 429/2/5 427/2/5 423/2/5
f 430/2/5 421/2/5 428/2/5
f 430/2/5 428/2/5 429/2/5
f 431/3/6 432/3/6 433/3/6
f 433/3/6 432/3/6 434/3/6
