# MagicaVoxel @ Ephtracy

# group
o 

# material
mtllib Gun2.mtl
usemtl palette

# normals
vn -1 0 0
vn 1 0 0
vn 0 0 1
vn 0 0 -1
vn 0 -1 0
vn 0 1 0

# texcoords
vt 0.841797 0.5
vt 0.982422 0.5
vt 0.990234 0.5
vt 0.994141 0.5

# verts
v -0.9 0.3 1.4
v -0.9 0.3 -0.9
v -0.9 0.4 1.4
v -0.9 0.4 -0.9
v -0.8 0.2 1.4
v -0.8 0.2 -0.9
v -0.8 0.3 1.4
v -0.8 0.3 -0.9
v -0.7 0.1 1.4
v -0.7 0.1 -0.9
v -0.7 0.2 1.4
v -0.7 0.2 -0.9
v -0.6 0 1.4
v -0.6 0 -0.9
v -0.6 0.1 1.4
v -0.6 0.1 -0.9
v -0.4 0 1.4
v -0.4 0 -0.4
v -0.4 0.1 1.4
v -0.4 0.1 -0.4
v -0.3 0.1 1.4
v -0.3 0.1 -0.4
v -0.3 0.2 1.4
v -0.3 0.2 -0.4
v -0.2 0.2 1.4
v -0.2 0.2 -0.4
v -0.2 0.3 1.4
v -0.2 0.3 -0.4
v -0.1 0.3 1.4
v -0.1 0.3 -0.4
v -0.1 0.4 1.4
v -0.1 0.4 -0.4
v 0.1 0 -0.4
v 0.1 0 -0.9
v 0.1 0.4 -0.4
v 0.1 0.4 -0.9
v -0.9 0.3 1.4
v -0.9 0.4 1.4
v -0.8 0.2 1.4
v -0.8 0.3 1.4
v -0.8 0.4 1.4
v -0.7 0.1 1.4
v -0.7 0.2 1.4
v -0.7 0.3 1.4
v -0.7 0.4 1.4
v -0.6 0 1.4
v -0.6 0.1 1.4
v -0.6 0.2 1.4
v -0.6 0.3 1.4
v -0.6 0.4 1.4
v -0.4 0 1.4
v -0.4 0.1 1.4
v -0.4 0.2 1.4
v -0.4 0.3 1.4
v -0.4 0.4 1.4
v -0.3 0.1 1.4
v -0.3 0.2 1.4
v -0.3 0.3 1.4
v -0.3 0.4 1.4
v -0.2 0.2 1.4
v -0.2 0.3 1.4
v -0.2 0.4 1.4
v -0.1 0.3 1.4
v -0.1 0.4 1.4
v -0.4 0 -0.4
v -0.4 0.1 -0.4
v -0.3 0.1 -0.4
v -0.3 0.2 -0.4
v -0.2 0.2 -0.4
v -0.2 0.3 -0.4
v -0.1 0.3 -0.4
v -0.1 0.4 -0.4
v 0.1 0 -0.4
v 0.1 0.4 -0.4
v -0.9 0.3 -0.9
v -0.9 0.4 -0.9
v -0.8 0.2 -0.9
v -0.8 0.3 -0.9
v -0.7 0.1 -0.9
v -0.7 0.2 -0.9
v -0.6 0 -0.9
v -0.6 0.1 -0.9
v -0.4 0 -0.9
v -0.4 0.1 -0.9
v 0.1 0 -0.9
v 0.1 0.4 -0.9
v -0.6 0 1.4
v -0.4 0 1.4
v -0.4 0 -0.4
v 0.1 0 -0.4
v -0.6 0 -0.9
v -0.4 0 -0.9
v 0.1 0 -0.9
v -0.7 0.1 1.4
v -0.6 0.1 1.4
v -0.4 0.1 1.4
v -0.3 0.1 1.4
v -0.4 0.1 -0.4
v -0.3 0.1 -0.4
v -0.7 0.1 -0.9
v -0.6 0.1 -0.9
v -0.8 0.2 1.4
v -0.7 0.2 1.4
v -0.3 0.2 1.4
v -0.2 0.2 1.4
v -0.3 0.2 -0.4
v -0.2 0.2 -0.4
v -0.8 0.2 -0.9
v -0.7 0.2 -0.9
v -0.9 0.3 1.4
v -0.8 0.3 1.4
v -0.2 0.3 1.4
v -0.1 0.3 1.4
v -0.2 0.3 -0.4
v -0.1 0.3 -0.4
v -0.9 0.3 -0.9
v -0.8 0.3 -0.9
v -0.9 0.4 1.4
v -0.8 0.4 1.4
v -0.7 0.4 1.4
v -0.6 0.4 1.4
v -0.4 0.4 1.4
v -0.3 0.4 1.4
v -0.2 0.4 1.4
v -0.1 0.4 1.4
v -0.1 0.4 -0.4
v 0.1 0.4 -0.4
v -0.6 0.4 -0.6
v -0.4 0.4 -0.6
v -0.6 0.4 -0.7
v -0.4 0.4 -0.7
v -0.8 0.4 -0.8
v -0.7 0.4 -0.8
v -0.6 0.4 -0.8
v -0.4 0.4 -0.8
v -0.3 0.4 -0.8
v -0.2 0.4 -0.8
v -0.9 0.4 -0.9
v 0.1 0.4 -0.9

# faces
f 3/1/1 2/1/1 1/1/1
f 4/1/1 2/1/1 3/1/1
f 7/1/1 6/1/1 5/1/1
f 8/1/1 6/1/1 7/1/1
f 11/1/1 10/1/1 9/1/1
f 12/1/1 10/1/1 11/1/1
f 15/4/1 14/4/1 13/4/1
f 16/4/1 14/4/1 15/4/1
f 17/4/2 18/4/2 19/4/2
f 19/4/2 18/4/2 20/4/2
f 21/1/2 22/1/2 23/1/2
f 23/1/2 22/1/2 24/1/2
f 25/1/2 26/1/2 27/1/2
f 27/1/2 26/1/2 28/1/2
f 29/1/2 30/1/2 31/1/2
f 31/1/2 30/1/2 32/1/2
f 33/1/2 34/1/2 35/1/2
f 35/1/2 34/1/2 36/1/2
f 40/1/3 38/1/3 37/1/3
f 41/1/3 38/1/3 40/1/3
f 43/1/3 40/1/3 39/1/3
f 44/3/3 41/3/3 40/3/3
f 44/1/3 40/1/3 43/1/3
f 45/3/3 41/3/3 44/3/3
f 47/1/3 43/1/3 42/1/3
f 48/3/3 44/3/3 43/3/3
f 48/1/3 43/1/3 47/1/3
f 49/4/3 45/4/3 44/4/3
f 49/3/3 44/3/3 48/3/3
f 50/4/3 45/4/3 49/4/3
f 51/4/3 47/4/3 46/4/3
f 52/3/3 48/3/3 47/3/3
f 52/4/3 47/4/3 51/4/3
f 52/3/3 49/3/3 48/3/3
f 53/3/3 49/3/3 52/3/3
f 54/2/3 50/2/3 49/2/3
f 54/3/3 49/3/3 53/3/3
f 55/2/3 50/2/3 54/2/3
f 56/1/3 53/1/3 52/1/3
f 57/3/3 54/3/3 53/3/3
f 57/1/3 53/1/3 56/1/3
f 58/4/3 55/4/3 54/4/3
f 58/3/3 54/3/3 57/3/3
f 59/4/3 55/4/3 58/4/3
f 60/1/3 58/1/3 57/1/3
f 61/3/3 59/3/3 58/3/3
f 61/1/3 58/1/3 60/1/3
f 62/3/3 59/3/3 61/3/3
f 63/1/3 62/1/3 61/1/3
f 64/1/3 62/1/3 63/1/3
f 67/1/3 66/1/3 65/1/3
f 69/1/3 68/1/3 67/1/3
f 71/1/3 70/1/3 69/1/3
f 73/1/3 67/1/3 65/1/3
f 73/1/3 72/1/3 71/1/3
f 73/1/3 71/1/3 69/1/3
f 73/1/3 69/1/3 67/1/3
f 74/1/3 72/1/3 73/1/3
f 75/1/4 76/1/4 78/1/4
f 77/1/4 78/1/4 80/1/4
f 79/1/4 80/1/4 82/1/4
f 81/4/4 82/4/4 83/4/4
f 82/1/4 80/1/4 84/1/4
f 83/4/4 82/4/4 84/4/4
f 83/1/4 84/1/4 85/1/4
f 78/1/4 76/1/4 86/1/4
f 85/1/4 84/1/4 86/1/4
f 80/1/4 78/1/4 86/1/4
f 84/1/4 80/1/4 86/1/4
f 89/4/5 88/4/5 87/4/5
f 91/4/5 89/4/5 87/4/5
f 92/1/5 90/1/5 89/1/5
f 92/4/5 89/4/5 91/4/5
f 93/1/5 90/1/5 92/1/5
f 98/1/5 97/1/5 96/1/5
f 99/1/5 97/1/5 98/1/5
f 100/1/5 95/1/5 94/1/5
f 101/1/5 95/1/5 100/1/5
f 106/1/5 105/1/5 104/1/5
f 107/1/5 105/1/5 106/1/5
f 108/1/5 103/1/5 102/1/5
f 109/1/5 103/1/5 108/1/5
f 114/1/5 113/1/5 112/1/5
f 115/1/5 113/1/5 114/1/5
f 116/1/5 111/1/5 110/1/5
f 117/1/5 111/1/5 116/1/5
f 124/1/6 125/1/6 126/1/6
f 120/4/6 121/4/6 128/4/6
f 121/2/6 122/2/6 128/2/6
f 122/4/6 123/4/6 129/4/6
f 128/2/6 122/2/6 129/2/6
f 120/4/6 128/4/6 130/4/6
f 128/4/6 129/4/6 130/4/6
f 129/4/6 123/4/6 131/4/6
f 130/4/6 129/4/6 131/4/6
f 118/1/6 119/1/6 132/1/6
f 119/3/6 120/3/6 132/3/6
f 120/4/6 130/4/6 133/4/6
f 132/3/6 120/3/6 133/3/6
f 130/1/6 131/1/6 134/1/6
f 133/4/6 130/4/6 134/4/6
f 131/4/6 123/4/6 135/4/6
f 134/1/6 131/1/6 135/1/6
f 123/3/6 124/3/6 136/3/6
f 135/4/6 123/4/6 136/4/6
f 126/1/6 127/1/6 137/1/6
f 136/3/6 124/3/6 137/3/6
f 124/1/6 126/1/6 137/1/6
f 133/1/6 134/1/6 138/1/6
f 132/1/6 133/1/6 138/1/6
f 136/1/6 137/1/6 138/1/6
f 118/1/6 132/1/6 138/1/6
f 134/1/6 135/1/6 138/1/6
f 135/1/6 136/1/6 138/1/6
f 137/1/6 127/1/6 139/1/6
f 138/1/6 137/1/6 139/1/6
